<svg xmlns="http://www.w3.org/2000/svg" width="170.749" height="26.438" viewBox="0 0 170.749 26.438"><defs><style>.a,.b{fill:#fff;}.a{font-size:18px;font-family:Muli-Bold, Muli;font-weight:700;}</style></defs><g transform="translate(-260 -718)"><text class="a" transform="translate(260 738)"><tspan x="0" y="0">EN SAVOIR PLUS</tspan></text><g transform="translate(567.801 718) rotate(90)"><path class="b" d="M26.285,142.53l-5.875-5.355a.491.491,0,0,0-.536-.076.444.444,0,0,0-.291.444v3.427H.49a.471.471,0,0,0-.49.489V144.4a.471.471,0,0,0,.49.489H19.584v3.427a.461.461,0,0,0,.291.444.477.477,0,0,0,.536-.092l5.875-5.417a.5.5,0,0,0,.153-.367A.483.483,0,0,0,26.285,142.53Z"/></g></g></svg>